<svg width="64" height="64" viewBox="0 0 64 64" fill="none" xmlns="http://www.w3.org/2000/svg">
<path d="M32.4144 64L27.7744 61.3333C23.0863 58.8113 18.6908 55.7796 14.6677 52.2933C10.5247 48.7042 7.54858 43.959 6.12107 38.6667C5.57972 36.4866 5.31983 34.2461 5.34774 32C5.33441 24.92 5.33441 17.7333 5.33441 10.5467C5.32551 10.3527 5.35909 10.1591 5.43278 9.9795C5.50648 9.79987 5.61852 9.6385 5.76107 9.50667C8.81441 6.46667 11.8544 3.41333 14.9211 0.373333C15.1514 0.150353 15.4543 0.0178154 15.7744 0L49.3344 0C49.6338 0.0122543 49.9203 0.12498 50.1477 0.32C53.2411 3.38667 56.3166 6.46667 59.3744 9.56C59.5765 9.75482 59.7039 10.0143 59.7344 10.2933C59.7344 17.8 59.7344 25.2933 59.7344 32.8C59.7021 39.0801 57.2859 45.1136 52.9744 49.68C49.6297 53.2274 45.8114 56.2964 41.6277 58.8L41.1077 58L40.6411 57.2267C41.6277 56.5733 42.5877 55.8933 43.5211 55.3067C46.9724 53.0379 50.0682 50.2701 52.7077 47.0933C56.1296 42.8855 57.9653 37.6098 57.8944 32.1867C57.8944 25.2 57.8944 18.2267 57.8944 11.24C57.881 10.9032 57.7487 10.582 57.5211 10.3333C54.8544 7.61333 52.1611 4.91556 49.4411 2.24C49.1853 2.01722 48.8601 1.89 48.5211 1.88C37.8544 1.88 27.2322 1.88 16.6544 1.88C16.3144 1.88542 15.9878 2.01324 15.7344 2.24C13.0677 4.90667 10.37 7.60444 7.64107 10.3333C7.4321 10.5464 7.30064 10.8234 7.26774 11.12C7.26774 18.44 7.26774 25.7867 7.26774 33.0533C7.38799 39.1515 9.89673 44.959 14.2544 49.2267C17.6553 52.6343 21.5039 55.5633 25.6944 57.9333C27.8144 59.2667 29.9877 60.4 32.1344 61.64C32.2596 61.7272 32.4085 61.7739 32.5611 61.7739C32.7136 61.7739 32.8625 61.7272 32.9877 61.64C33.8811 61.1333 34.8011 60.64 35.8011 60.0933L36.7077 61.6933L32.6677 64H32.4144Z" fill="#F3262D"/>
<path d="M23.6008 5.69314V7.49314C22.6462 7.55324 21.6887 7.55324 20.7341 7.49314C19.9782 7.36883 19.2026 7.45912 18.4955 7.75375C17.7884 8.04839 17.1781 8.53554 16.7341 9.15981C15.6808 10.4265 14.4008 11.5198 13.2275 12.7198C13.0443 12.9034 12.927 13.1425 12.8941 13.3998C12.8941 19.8443 12.8941 26.2843 12.8941 32.7198C12.9217 35.1391 13.4392 37.5276 14.4154 39.7414C15.3916 41.9551 16.8064 43.948 18.5741 45.5998C22.1706 49.0136 26.2061 51.9326 30.5741 54.2798H30.6808C31.3341 54.6265 32.0141 55.2398 32.6541 55.2531C33.2941 55.2665 33.9875 54.6398 34.5608 54.2798C38.507 52.114 42.1968 49.5109 45.5608 46.5198C48.4646 44.0773 50.5802 40.8297 51.6408 37.1865C52.0182 35.4833 52.2104 33.7443 52.2141 31.9998C52.2941 25.8665 52.2141 19.7198 52.2141 13.5731C52.2214 13.3782 52.1857 13.184 52.1097 13.0043C52.0336 12.8246 51.9191 12.6637 51.7741 12.5331C50.2675 11.0665 48.7341 9.54647 47.2141 7.99981C47.0668 7.83289 46.8833 7.70173 46.6777 7.61625C46.4721 7.53077 46.2497 7.49323 46.0275 7.50648H25.5608V5.62647H46.8941C47.0771 5.61745 47.2596 5.64995 47.4282 5.72153C47.5968 5.79311 47.7469 5.90192 47.8675 6.03981C49.7875 7.98648 51.7208 9.90647 53.6675 11.8265C53.8152 11.9663 53.9309 12.1364 54.0069 12.3251C54.0828 12.5138 54.1171 12.7166 54.1075 12.9198C54.1075 19.2531 54.0408 25.5865 54.1075 31.9198C54.1576 34.7092 53.629 37.4788 52.555 40.0536C51.481 42.6285 49.8849 44.9528 47.8675 46.8798C44.4968 50.1373 40.7241 52.9511 36.6408 55.2531C35.4275 55.9865 34.1875 56.6798 32.9475 57.3598C32.8345 57.4114 32.7117 57.4381 32.5875 57.4381C32.4632 57.4381 32.3405 57.4114 32.2275 57.3598C27.3649 54.8577 22.8136 51.7922 18.6675 48.2265C15.6804 45.7071 13.3858 42.4671 12.0008 38.8131C11.294 36.6947 10.947 34.4729 10.9741 32.2398C10.9741 25.7731 10.9741 19.2931 10.9741 12.8131C10.9889 12.4726 11.1208 12.1477 11.3475 11.8931C13.3341 9.90648 15.2941 7.99981 17.3341 5.97314C17.4927 5.7929 17.71 5.67477 17.9475 5.63981C19.7741 5.63981 21.6141 5.63981 23.4408 5.63981C23.4956 5.65279 23.5492 5.67064 23.6008 5.69314Z" fill="#F3262D"/>
<path d="M29.8404 39.6672L19.4004 29.2405L24.6271 24.0005L29.7337 29.1605L40.4004 18.5605L45.7337 23.8272L29.8404 39.6672ZM40.3471 21.2139C36.8537 24.7072 33.3471 28.2272 29.7737 31.7872L24.6404 26.6672L22.0937 29.2005L29.8671 36.9739L42.9871 23.8539L40.3471 21.2139Z" fill="white"/>
<path d="M38.3611 60.7592L37.4277 59.1459L39.0277 58.1992L39.9877 59.7992L38.3611 60.7592Z" fill="#F3262D"/>
<path d="M47.3874 10.9064L46.1341 12.2398L44.8008 10.9998L46.1341 9.75977L47.3874 10.9064Z" fill="#F3262D"/>
<path d="M48.8542 12.3594L50.0408 13.586L48.7075 14.7994L47.5342 13.5994L48.8542 12.3594Z" fill="#F3262D"/>
</svg>
