<svg width="65" height="64" viewBox="0 0 65 64" fill="none" xmlns="http://www.w3.org/2000/svg">
<g clip-path="url(#clip0_273_4834)">
<path d="M51.3567 0C52.0782 0.177111 52.7902 0.390719 53.49 0.64C55.1822 1.328 56.604 2.54887 57.54 4.1176C58.4759 5.68633 58.875 7.51741 58.6767 9.33333H51.2767V26.5467L52.1167 26.72C53.6346 27.0219 55.0357 27.7485 56.1569 28.8154C57.278 29.8823 58.0733 31.2456 58.45 32.7467C58.9246 34.2345 58.9393 35.8309 58.4921 37.3272C58.0448 38.8234 57.1566 40.15 55.9434 41.1333C55.3492 41.6151 54.9124 42.2635 54.6891 42.9951C54.4658 43.7268 54.4661 44.5085 54.69 45.24C55.2669 47.7656 56.163 50.2074 57.3567 52.5067C57.4121 52.5994 57.4855 52.6802 57.5725 52.7443C57.6595 52.8084 57.7583 52.8545 57.8634 52.88C58.9305 53.1143 59.8832 53.7116 60.5592 54.5699C61.2351 55.4282 61.5924 56.4944 61.57 57.5867V60.2533H59.7034V64H53.1167V62.1867H57.6767V60.3333H42.9034V62.1467H47.4367V64H2.45003V8.72C2.381 6.65644 3.072 4.63935 4.39187 3.05158C5.71173 1.46381 7.56859 0.415873 9.61003 0.106667C9.68719 0.0847931 9.75956 0.0486093 9.82336 0L51.3567 0ZM17.45 9.4C17.45 8.96 17.45 8.6 17.45 8.25333C17.4005 6.51351 16.6619 4.86462 15.3967 3.66939C14.1314 2.47415 12.4432 1.83049 10.7034 1.88C8.96354 1.92951 7.31464 2.66813 6.11941 3.93337C4.92418 5.19862 4.28052 6.88685 4.33003 8.62667C4.33003 26.2711 4.33003 43.9067 4.33003 61.5333C4.33003 61.7333 4.33003 61.9333 4.33003 62.1067H40.9434V60.2667H39.1034C39.1034 59.28 39.1034 58.36 39.1034 57.4533C39.1078 56.3904 39.473 55.3604 40.1391 54.532C40.8052 53.7036 41.7328 53.1259 42.77 52.8933C42.9804 52.8465 43.1658 52.7229 43.29 52.5467C44.4952 50.2104 45.3916 47.7274 45.9567 45.16C46.1506 44.436 46.1277 43.6709 45.8906 42.9598C45.6536 42.2487 45.2129 41.6229 44.6234 41.16C43.555 40.2228 42.7449 39.0271 42.2706 37.6874C41.7964 36.3477 41.6738 34.9087 41.9146 33.508C42.1554 32.1073 42.7515 30.7919 43.646 29.6875C44.5404 28.583 45.7033 27.7266 47.0234 27.2C47.7785 26.9181 48.5486 26.6777 49.33 26.48V9.4H17.45ZM19.3034 7.48H56.77C56.77 7.24 56.7034 7.04 56.6634 6.84C56.3086 5.40958 55.4806 4.14113 54.3139 3.24069C53.1472 2.34025 51.7103 1.86072 50.2367 1.88C39.09 1.88 27.9389 1.88 16.7834 1.88H16.2234C17.9145 3.29556 19.0135 5.29372 19.3034 7.48ZM45.3567 52.8133H55.21C55.21 52.7467 55.21 52.6933 55.21 52.6667L54.89 51.92C53.7494 49.5339 52.9934 46.9823 52.65 44.36C52.5014 43.5759 52.5792 42.7657 52.8744 42.0242C53.1695 41.2828 53.6698 40.6407 54.3167 40.1733C54.6799 39.8901 55.0068 39.5632 55.29 39.2C56.1971 38.1526 56.7405 36.8397 56.8391 35.4576C56.9376 34.0756 56.586 32.6988 55.8367 31.5333C55.0996 30.3472 53.9998 29.4304 52.7004 28.9188C51.401 28.4072 49.9712 28.3281 48.6234 28.6933C47.4482 28.9691 46.3771 29.5771 45.5379 30.4447C44.6987 31.3123 44.1266 32.403 43.89 33.5867C43.6086 34.768 43.681 36.006 44.0983 37.1465C44.5156 38.2869 45.2593 39.2793 46.2367 40C46.8967 40.4962 47.4032 41.1686 47.6981 41.9399C47.9929 42.7112 48.0641 43.5501 47.9034 44.36C47.6761 45.8181 47.3418 47.2576 46.9034 48.6667C46.45 50.0667 45.89 51.3733 45.3567 52.7467V52.8133ZM59.5567 58.44C59.7025 57.9689 59.7271 57.4686 59.6283 56.9854C59.5296 56.5023 59.3106 56.0518 58.9916 55.6757C58.6726 55.2995 58.264 55.0099 57.8034 54.8336C57.3429 54.6572 56.8453 54.5998 56.3567 54.6667H44.17C43.6995 54.6272 43.2265 54.7024 42.7914 54.8858C42.3563 55.0693 41.9722 55.3555 41.672 55.7199C41.3718 56.0843 41.1645 56.5161 41.0678 56.9783C40.9711 57.4404 40.9878 57.9191 41.1167 58.3733L59.5567 58.44Z" fill="#F3262D"/>
<path d="M49.3691 63.9996V62.2129H51.1825V63.9996H49.3691Z" fill="#F3262D"/>
<path d="M14.6498 26.3601H12.8231C12.8109 26.1914 12.8109 26.0221 12.8231 25.8534C12.8231 23.9201 12.8231 21.9734 12.8231 20.0401C12.7921 19.6404 12.8469 19.2388 12.9837 18.862C13.1206 18.4852 13.3364 18.142 13.6167 17.8554C13.8969 17.5688 14.2352 17.3454 14.6089 17.2002C14.9825 17.055 15.3829 16.9913 15.7831 17.0134H30.3431C30.7488 16.9736 31.1584 17.0228 31.5431 17.1576C31.9278 17.2924 32.2785 17.5097 32.5705 17.7941C32.8626 18.0785 33.089 18.4233 33.2339 18.8043C33.3789 19.1854 33.4389 19.5935 33.4098 20.0001C33.4098 24.8801 33.4098 29.7468 33.4098 34.6668C33.4361 35.0704 33.3751 35.4749 33.2308 35.8528C33.0866 36.2307 32.8626 36.5731 32.5741 36.8566C32.2855 37.14 31.9392 37.358 31.5589 37.4955C31.1785 37.633 30.7729 37.6869 30.3698 37.6534H15.7831C15.3827 37.6831 14.9806 37.6263 14.6041 37.4868C14.2276 37.3474 13.8854 37.1286 13.6009 36.8454C13.3163 36.5621 13.0961 36.2209 12.955 35.845C12.8139 35.4691 12.7553 35.0673 12.7831 34.6668C12.7831 32.5601 12.7831 30.4668 12.7831 28.3201H14.6231C14.6231 28.5334 14.6231 28.7468 14.6231 28.9601V34.4668C14.6231 35.4934 14.9165 35.8001 15.9565 35.8001H30.2631C31.2231 35.8001 31.5298 35.4934 31.5298 34.5334C31.5298 29.7334 31.5298 24.9468 31.5298 20.1468C31.5298 19.2134 31.2231 18.9068 30.2898 18.9068H15.9165C14.9565 18.9068 14.6498 19.2134 14.6498 20.2401V26.4401V26.3601Z" fill="white"/>
<path d="M30.583 40.5059V42.2792H15.623V40.5059H30.583Z" fill="white"/>
<path d="M30.583 49.8926V51.6659H15.623V49.8926H30.583Z" fill="white"/>
<path d="M30.5694 45.1992V46.9859H15.6094V45.1992H30.5694Z" fill="white"/>
<path d="M21.6896 28.76L26.343 24L27.5563 25.3333L21.7696 31.1067L18.543 27.9333L19.783 26.6667L21.6896 28.76Z" fill="white"/>
<path d="M47.4634 11.3066V13.0933H45.6367V11.3066H47.4634Z" fill="#F3262D"/>
<path d="M45.6504 15.0391H47.4504V16.8524H45.6504V15.0391Z" fill="#F3262D"/>
<path d="M49.3828 34.9061V33.1328H51.1961V34.9061H49.3828Z" fill="#F3262D"/>
</g>
<defs>
<clipPath id="clip0_273_4834">
<rect width="64" height="64" fill="white" transform="translate(0.666992)"/>
</clipPath>
</defs>
</svg>
