<svg width="65" height="64" viewBox="0 0 65 64" fill="none" xmlns="http://www.w3.org/2000/svg">
<g clip-path="url(#clip0_273_4848)">
<path d="M20.613 63.9991V62.1312H22.4541V55.5671H0V53.6859H1.84116C1.84116 51.231 1.84116 48.8562 1.84116 46.4947C1.83522 45.8495 1.89784 45.2055 2.02794 44.5735C2.28606 43.3425 2.85408 42.1976 3.67822 41.2474C4.50237 40.2972 5.55537 39.573 6.73757 39.1434L7.25789 38.9433C6.36156 38.0972 5.80225 36.9549 5.68357 35.728C5.55387 34.3212 5.61219 32.9034 5.85701 31.512C6.20166 30.1889 7.03043 29.0434 8.1793 28.3022C9.32816 27.561 10.7134 27.2781 12.0609 27.5095C13.3516 27.709 14.5331 28.3499 15.4041 29.3231C16.2751 30.2962 16.7816 31.5413 16.8372 32.8461C16.8372 33.2464 16.8372 33.6467 16.8372 34.0336C16.9285 34.9187 16.8254 35.8131 16.535 36.6542C16.2446 37.4954 15.7741 38.2629 15.1562 38.9033L15.6365 39.1034C17.0874 39.6318 18.3406 40.5937 19.226 41.8587C20.1115 43.1237 20.5864 44.6304 20.5863 46.1745C20.5863 48.4159 20.5863 50.6707 20.5863 52.9254V53.6726C21.1733 53.6726 21.707 53.6726 22.2406 53.6726C22.3138 53.6532 22.3812 53.6164 22.4369 53.5653C22.4927 53.5142 22.5352 53.4503 22.5608 53.379C23.6549 49.8435 24.4687 48.9096 27.8975 47.3619L27.604 46.9884C26.7417 45.9812 26.2684 44.6986 26.2698 43.3728C26.2427 42.415 26.2828 41.4565 26.3899 40.5043C26.6191 39.134 27.3527 37.899 28.4465 37.0423C29.5402 36.1855 30.915 35.7691 32.3003 35.8747C33.6843 35.9826 34.9796 36.598 35.9375 37.6027C36.8954 38.6074 37.4484 39.9306 37.4902 41.3181C37.4902 41.7317 37.4902 42.1453 37.4902 42.5589C37.5805 43.4315 37.4819 44.3133 37.2011 45.1444C36.9202 45.9755 36.4637 46.7364 35.8625 47.3753L36.2361 47.5621C37.4728 47.9924 38.5736 48.7425 39.4266 49.7361C40.2796 50.7296 40.8543 51.9313 41.0925 53.2189C41.1725 53.5792 41.2793 53.7259 41.6528 53.7126C42.0264 53.6993 42.6001 53.7126 43.1204 53.7126C43.1204 52.0982 43.1204 50.5639 43.1204 49.0163C43.0714 47.7481 43.1026 46.4781 43.2138 45.2139C43.3691 43.8267 43.9212 42.5137 44.8039 41.4322C45.6865 40.3508 46.8623 39.5469 48.1903 39.1168L48.5372 38.9567C47.6514 38.1137 47.0935 36.9838 46.9628 35.768C46.844 34.3383 46.9067 32.8992 47.1496 31.4853C47.4942 30.1649 48.3209 29.0215 49.4668 28.2806C50.6128 27.5397 51.9947 27.2551 53.3402 27.4828C54.6322 27.6819 55.8155 28.3223 56.6886 29.2952C57.5618 30.2682 58.0711 31.5135 58.1299 32.8195C58.1299 33.2331 58.1299 33.66 58.1299 34.0736C58.2156 34.9471 58.111 35.8289 57.8231 36.6581C57.5352 37.4873 57.0708 38.2442 56.4621 38.8766L56.9291 39.0767C58.3778 39.6043 59.6295 40.5642 60.5148 41.8266C61.4001 43.0889 61.8763 44.5927 61.8789 46.1345C61.8789 48.3892 61.8789 50.644 61.8789 52.8854V53.6325H63.7067V55.5004H41.3593V62.0645H43.1871V63.9991H34.6885V62.1045H39.2513C39.2513 62.0245 39.3314 61.9978 39.3314 61.9578C39.3314 59.3695 39.3314 56.7945 39.3314 54.2062C39.2821 52.9472 38.7889 51.7462 37.9392 50.8159C37.0894 49.8855 35.9379 49.2859 34.6885 49.123C33.132 48.9762 31.5674 48.9361 30.0055 49.003C29.2624 48.9976 28.5257 49.1404 27.8384 49.4232C27.1511 49.7059 26.5271 50.1228 26.0029 50.6495C25.4787 51.1762 25.0647 51.8022 24.7853 52.4908C24.5058 53.1794 24.3664 53.9168 24.3753 54.6599C24.3753 56.9413 24.3753 59.2361 24.3753 61.5308V62.0779H29.0316L29.1383 63.9457L20.613 63.9991ZM3.82907 53.6325H18.6784C18.6784 50.9642 18.7718 48.2959 18.6784 45.7076C18.5971 44.3594 18.0186 43.0894 17.0551 42.143C16.0915 41.1967 14.8112 40.6413 13.4618 40.5843C11.9542 40.5176 10.4199 40.5176 8.89892 40.5843C7.65469 40.6219 6.46465 41.102 5.54268 41.9384C4.62072 42.7747 4.02731 43.9125 3.8691 45.1472C3.65563 47.989 3.82907 50.7774 3.82907 53.6325ZM45.1083 53.6325H60.0377C60.0377 50.9642 60.1178 48.2959 60.0377 45.7076C59.9535 44.3605 59.3741 43.0921 58.4111 42.1463C57.4482 41.2006 56.1695 40.6443 54.8211 40.5843C53.3002 40.5176 51.7659 40.5176 50.2582 40.5843C49.0125 40.6214 47.8207 41.1011 46.8965 41.9372C45.9724 42.7734 45.3763 43.9114 45.2151 45.1472C44.9349 47.989 45.1083 50.7774 45.1083 53.6325ZM35.6624 42.4122C35.6624 42.0519 35.6624 41.705 35.6624 41.3448C35.6624 40.3505 35.2674 39.3969 34.5643 38.6939C33.8613 37.9908 32.9077 37.5958 31.9134 37.5958C30.9191 37.5958 29.9655 37.9908 29.2624 38.6939C28.5593 39.3969 28.1644 40.3505 28.1644 41.3448C28.1644 42.0253 28.1644 42.679 28.1644 43.3994C28.1765 44.3264 28.5305 45.2162 29.1584 45.8982C29.7862 46.5802 30.6437 47.0064 31.5665 47.0951C32.4879 47.1845 33.4095 46.9261 34.1501 46.3706C34.8907 45.8152 35.3969 45.0028 35.569 44.0932C35.6337 43.5352 35.6649 42.9739 35.6624 42.4122ZM7.43134 33.9268C7.43134 34.3004 7.43134 34.674 7.43134 35.0475C7.46355 35.9612 7.82848 36.8315 8.45748 37.4949C9.08648 38.1583 9.9362 38.569 10.8468 38.6498C11.7568 38.7649 12.6764 38.5299 13.4196 37.9923C14.1627 37.4548 14.6738 36.6549 14.8493 35.7546C15.0115 34.7446 15.0474 33.7183 14.9561 32.6994C14.8773 31.8124 14.4842 30.9828 13.8478 30.36C13.2113 29.7372 12.3733 29.3623 11.4849 29.3027C10.5964 29.2432 9.7159 29.5029 9.00204 30.0352C8.28817 30.5675 7.78792 31.3372 7.59144 32.2057C7.5043 32.7758 7.45084 33.3505 7.43134 33.9268ZM56.3154 33.9935C56.3154 33.6333 56.3154 33.2731 56.3154 32.9262C56.2896 32.0114 55.9289 31.138 55.3018 30.4715C54.6747 29.805 53.8247 29.3919 52.9132 29.3106C52.0052 29.1951 51.0872 29.4283 50.3443 29.9631C49.6015 30.4979 49.0892 31.2946 48.9107 32.1924C48.777 33.1199 48.7368 34.0586 48.7907 34.9942C48.8158 35.9039 49.1722 36.7732 49.793 37.4387C50.4137 38.1043 51.2561 38.5204 52.1618 38.6088C53.0676 38.6973 53.9746 38.452 54.7123 37.9191C55.4501 37.3862 55.9679 36.6023 56.1686 35.7146C56.2507 35.1442 56.2997 34.5696 56.3154 33.9935Z" fill="white"/>
<path d="M30.873 63.999L30.9798 62.1445H32.7676L32.8743 63.999H30.873Z" fill="white"/>
<path d="M19.2794 5.61651L20.6136 6.83061C17.8841 9.69258 16.3766 13.5052 16.411 17.46C16.4454 21.4148 18.0189 25.2006 20.7978 28.0147C23.5767 30.8288 27.3425 32.4497 31.2965 32.5339C35.2505 32.618 39.0818 31.1586 41.9779 28.4653C44.874 25.7719 46.607 22.0564 46.8096 18.1067C47.0121 14.157 45.6682 10.2837 43.0629 7.30819C40.4575 4.33272 36.7956 2.4891 32.8537 2.16831C28.9118 1.84751 25 3.07477 21.9478 5.58983L20.7337 4.25565C21.9232 3.16626 23.2731 2.26629 24.7362 1.58731C26.8938 0.578986 29.2404 0.0387131 31.6217 0.00200508C34.0029 -0.0347029 36.365 0.432985 38.5527 1.37433C40.7403 2.31567 42.704 3.70935 44.3146 5.46376C45.9251 7.21817 47.1462 9.29358 47.8974 11.5536C47.9116 11.6532 47.9462 11.7489 47.999 11.8346C48.0518 11.9204 48.1217 11.9943 48.2043 12.0519C48.2869 12.1094 48.3804 12.1494 48.4791 12.1692C48.5778 12.1891 48.6795 12.1884 48.778 12.1673H58.1172V21.5065H57.37C54.5416 21.5065 51.6998 21.5065 48.8714 21.5065C48.7591 21.4834 48.6432 21.4831 48.5308 21.5058C48.4184 21.5284 48.3117 21.5734 48.2171 21.6381C48.1225 21.7029 48.0419 21.786 47.9801 21.8826C47.9183 21.9792 47.8765 22.0872 47.8574 22.2003C46.7434 25.5664 44.5968 28.4958 41.7227 30.5722C38.8485 32.6485 35.393 33.7661 31.8473 33.7661C28.3016 33.7661 24.8462 32.6485 21.972 30.5722C19.0978 28.4958 16.9512 25.5664 15.8373 22.2003C15.8228 22.0968 15.7875 21.9973 15.7336 21.9078C15.6796 21.8183 15.6081 21.7407 15.5233 21.6796C15.4385 21.6185 15.3422 21.5752 15.2403 21.5524C15.1383 21.5295 15.0328 21.5275 14.93 21.5465C12.0616 21.5465 9.20644 21.5465 6.35131 21.5465H5.63086V12.2073H6.39134C9.27315 12.2073 12.155 12.2073 15.0234 12.2073C15.2143 12.2341 15.408 12.1848 15.5628 12.07C15.7176 11.9551 15.821 11.784 15.8506 11.5936C16.5462 9.37598 17.7162 7.33638 19.2794 5.61651ZM7.4987 19.6253H15.0901V14.0885H7.4987V19.6253ZM56.236 19.6253V14.1018H48.6579V19.6253H56.236Z" fill="#F3262D"/>
<path d="M31.9004 29.9784C29.2995 29.9864 26.7548 29.2224 24.5884 27.7832C22.422 26.344 20.7314 24.2943 19.7306 21.8937C18.7298 19.4931 18.4639 16.8495 18.9664 14.2977C19.4689 11.7458 20.7174 9.40048 22.5537 7.55858C24.39 5.71669 26.7315 4.4611 29.2818 3.95077C31.8321 3.44045 34.4765 3.69835 36.8801 4.69182C39.2838 5.68529 41.3386 7.36965 42.7844 9.53163C44.2302 11.6936 45.0019 14.236 45.0019 16.8368C44.9949 20.3131 43.6136 23.6456 41.1593 26.1075C38.7049 28.5694 35.3766 29.9608 31.9004 29.9784ZM20.6133 16.8502C20.6133 19.0773 21.2737 21.2544 22.511 23.1061C23.7483 24.9579 25.5069 26.4012 27.5645 27.2534C29.6221 28.1057 31.8862 28.3287 34.0705 27.8942C36.2548 27.4597 38.2612 26.3873 39.836 24.8125C41.4108 23.2377 42.4832 21.2313 42.9177 19.047C43.3522 16.8627 43.1292 14.5986 42.277 12.541C41.4247 10.4834 39.9814 8.72481 38.1296 7.4875C36.2779 6.25019 34.1008 5.58978 31.8737 5.58978C28.8883 5.59331 26.0262 6.78081 23.9153 8.89178C21.8043 11.0027 20.6168 13.8648 20.6133 16.8502Z" fill="#F3262D"/>
<path d="M11.1943 17.7565H9.33984V15.9688H11.1943V17.7565Z" fill="#F3262D"/>
<path d="M52.5664 15.9688H54.3675V17.7699H52.5664V15.9688Z" fill="#F3262D"/>
<path d="M30.4854 23.308L24.0146 16.9039L28.0172 12.9815L30.5254 15.5297L35.7554 10.2598L39.5978 14.2623L30.4854 23.308ZM35.8221 12.8747L30.4854 18.2114L28.0172 15.6632L26.683 16.7438L30.472 20.5996L36.9561 14.1422L35.8221 12.8747Z" fill="#F3262D"/>
</g>
<defs>
<clipPath id="clip0_273_4848">
<rect width="64" height="64" fill="white" transform="translate(0.333008)"/>
</clipPath>
</defs>
</svg>
