<svg width="182" height="36" viewBox="0 0 182 36" fill="none" xmlns="http://www.w3.org/2000/svg">
<path d="M32.9735 5.82853C36.714 4.91859 40.4078 4.13129 44.0625 3.19365L44.0352 2.91276L26.5572 1.63884C26.5143 2.1215 26.4479 2.51318 26.4479 2.90485C26.4479 13.1911 26.4479 23.4774 26.4479 33.7637V35.0812C25.7537 35.01 25.1764 34.9664 24.603 34.8952L5.22153 32.4423C4.29322 32.3276 3.3649 32.1891 2.43659 32.0981C2.00754 32.0467 1.82031 31.8529 1.82031 31.4335C1.82031 31.1803 1.82031 30.9271 1.82031 30.6739V5.85226L4.35172 5.23509C11.3297 3.56159 18.3115 1.896 25.2778 0.182934C26.2509 -0.0340796 27.2561 -0.0582607 28.2383 0.111721C34.0292 0.958362 39.8305 1.80237 45.6422 2.64373C46.011 2.68181 46.3836 2.65233 46.7421 2.55669C49.8352 1.80896 52.9166 1.06122 56.0097 0.269971C57.0646 -0.0102492 58.1646 -0.0708111 59.2432 0.0919395C65.1017 0.967593 70.9641 1.82083 76.8305 2.65164C77.4146 2.72961 78.0079 2.70012 78.5818 2.56461C81.7022 1.82874 84.8225 1.06914 87.9429 0.262059C88.9997 -0.0083097 90.0993 -0.0607774 91.1764 0.107765C96.758 0.934624 102.344 1.73775 107.948 2.55274C108.214 2.5923 108.475 2.67538 108.729 2.73473V2.93254C108.513 2.9745 108.293 2.997 108.073 2.9998L99.66 2.39449L93.1306 1.89995C92.2608 1.8327 91.3871 1.76544 90.5172 1.71401C90.213 1.71401 89.9088 1.71401 89.4758 1.71401C89.4329 12.8509 89.4251 23.9126 89.4758 35.1049L64.9028 32.0071V5.82853L75.9294 3.23322C75.798 3.10721 75.6418 3.01073 75.4711 2.95006C75.3004 2.88939 75.119 2.8659 74.9387 2.88111L63.1788 2.05425C61.6849 1.94743 60.1949 1.82083 58.701 1.71401C58.3656 1.69027 58.0262 1.71401 57.5972 1.71401C57.5699 2.13733 57.527 2.50526 57.527 2.8732C57.527 13.1595 57.527 23.4458 57.527 33.7321C57.527 34.1633 57.4919 34.5945 57.4685 35.093L33.0242 32.0071C32.9722 31.7022 32.9383 31.3944 32.9227 31.0853C32.9227 22.9513 32.9227 14.8158 32.9227 6.67912C32.9071 6.42988 32.9423 6.18063 32.9735 5.82853Z" fill="#606060"/>
<path d="M4.79662 27.4614L4.62109 27.1964L11.1115 8.06385L11.3845 7.80273H16.8452L17.1182 8.06385L23.5111 27.1964L23.3356 27.4614H18.421L17.1299 23.4221H10.9087L9.62151 27.4614H4.79662ZM14.0252 13.5354L12.0398 19.8654H16.0144L14.0642 13.5354H14.0252Z" fill="#FFB400"/>
<path d="M43.4847 27.1959L43.2117 27.461H38.7223L38.4492 27.1959V8.20581L38.7223 7.9447C39.8924 7.84579 41.004 7.77853 42.1118 7.73502C43.2195 7.6915 44.2882 7.66776 45.3219 7.66776C46.4649 7.66119 47.6057 7.7712 48.727 7.99613C49.6968 8.18244 50.6231 8.55291 51.4573 9.08806C52.2182 9.58109 52.8436 10.2616 53.2749 11.0662C53.7424 12.0112 53.969 13.0598 53.9341 14.1165V14.3815C53.9504 15.3732 53.7562 16.3568 53.3647 17.2657C52.9839 18.1104 52.4006 18.8449 51.6679 19.402C50.8345 20.021 49.8917 20.4723 48.8908 20.7314C47.64 21.0572 46.3518 21.2115 45.0605 21.1903H43.4808L43.4847 27.1959ZM43.4847 11.7665V17.4081H45.0917C45.5521 17.409 46.0116 17.368 46.4647 17.2854C46.8963 17.211 47.3104 17.0554 47.6856 16.8265C48.0468 16.5985 48.348 16.2849 48.5632 15.9126C48.8068 15.4527 48.924 14.9348 48.9025 14.4132V14.1481C48.9188 13.7147 48.8104 13.2858 48.5905 12.9138C48.3823 12.5872 48.1001 12.3159 47.7675 12.1225C47.4038 11.917 47.008 11.7764 46.5973 11.7071C46.1478 11.6277 45.6923 11.588 45.2361 11.5884C44.9357 11.5884 44.6393 11.5884 44.3428 11.628C44.0464 11.6675 43.7578 11.7032 43.4847 11.7467V11.7665Z" fill="#FFB400"/>
<path d="M85.2243 26.1721L84.9668 26.5282C84.3857 26.7616 83.8474 26.9594 83.352 27.1137C82.8671 27.2619 82.375 27.3847 81.8776 27.4816C81.3707 27.5745 80.8589 27.6379 80.3448 27.6715C79.8143 27.7071 79.2331 27.7229 78.5973 27.7229H78.336C76.8535 27.7457 75.3787 27.5033 73.9792 27.0069C72.8168 26.5872 71.7605 25.9117 70.8861 25.0287C70.057 24.1616 69.4258 23.1203 69.0373 21.9784C68.6088 20.7054 68.399 19.3672 68.4171 18.0222V17.5079C68.401 16.162 68.6148 14.8235 69.049 13.5516C69.4503 12.394 70.0944 11.3385 70.9368 10.4578C71.8206 9.55822 72.8848 8.86199 74.0572 8.41637C75.4299 7.90056 76.8839 7.64314 78.3477 7.65676H78.609C79.2331 7.65676 79.8104 7.65676 80.337 7.70819C80.8523 7.74249 81.3654 7.80589 81.8737 7.8981C82.3773 7.98983 82.8749 8.11271 83.3637 8.26603C83.8591 8.42032 84.3896 8.61418 84.9512 8.85156L85.236 9.16806L84.9785 12.6931L84.6665 12.8632H84.5105C84.0431 12.5928 83.5568 12.3575 83.0556 12.159C82.6067 11.9853 82.1466 11.8425 81.6787 11.7317C81.2296 11.6268 80.7732 11.5567 80.3136 11.522C79.8533 11.4864 79.3813 11.4666 78.8899 11.4666H78.6324C77.9643 11.4604 77.3015 11.5881 76.6822 11.8425C76.0832 12.089 75.549 12.4737 75.122 12.9661C74.6586 13.5167 74.3109 14.1575 74.1001 14.8493C73.8402 15.7048 73.7164 16.5969 73.7334 17.492V18.0182C73.7149 18.9108 73.8387 19.8006 74.1001 20.6531C74.31 21.3309 74.6582 21.9564 75.122 22.4888C75.5507 22.965 76.0857 23.33 76.6822 23.553C77.3064 23.786 77.9674 23.9013 78.6324 23.8933H78.8899C79.4437 23.8933 79.9664 23.8933 80.4501 23.8339C80.9423 23.7962 81.4311 23.7221 81.9128 23.6124C82.3992 23.5041 82.8765 23.3573 83.3403 23.1732C83.8542 22.961 84.3522 22.7111 84.8303 22.4255H84.9551L85.2126 22.6233L85.2243 26.1721Z" fill="#FFB400"/>
<path d="M104.517 13.5313V16.4867H107.001C107.975 16.4808 108.947 16.5695 109.903 16.7517C110.737 16.9032 111.537 17.2033 112.267 17.6379C112.926 18.0391 113.472 18.6043 113.855 19.2798C114.266 20.0539 114.466 20.9251 114.436 21.8039V22.0373C114.467 22.9224 114.267 23.8002 113.855 24.5812C113.472 25.2616 112.926 25.8331 112.267 26.2428C111.542 26.692 110.74 27.0006 109.903 27.1527C108.947 27.3396 107.975 27.4311 107.001 27.4257H100.328L100.078 27.1963V10.4019L100.328 10.1685H112.626L112.868 10.4019V13.2979L112.626 13.5313H104.517ZM104.517 24.0669H106.951C107.387 24.0708 107.823 24.0391 108.254 23.9719C108.589 23.9275 108.913 23.8158 109.205 23.6435C109.454 23.4932 109.657 23.2771 109.794 23.0184C109.94 22.7132 110.01 22.3763 109.997 22.0373V21.8039C110.01 21.4674 109.94 21.1331 109.794 20.8306C109.659 20.5782 109.454 20.3708 109.205 20.2332C108.908 20.0776 108.586 19.9759 108.254 19.9326C107.822 19.8723 107.387 19.8432 106.951 19.8455H104.517V24.0669ZM121.371 16.8111H127.779L128.017 17.0405V19.9405L127.779 20.1699H121.371V24.0669H128.832L129.074 24.2963V27.1963L128.832 27.4257H117.174L116.932 27.1963V10.4019L117.174 10.1685H128.832L129.074 10.4019V13.2979L128.832 13.5313H121.371V16.8111ZM144.969 10.1685L145.211 10.4019V13.2979L144.969 13.5313H139.941V27.1963L139.703 27.4257H135.744L135.502 27.1963V13.5313H130.463L130.225 13.2979V10.4019L130.463 10.1685H144.969ZM146.026 18.4213C146.011 17.2366 146.183 16.0571 146.537 14.9279C146.855 13.9148 147.387 12.9844 148.097 12.202C148.83 11.4162 149.73 10.8112 150.73 10.4336C151.931 9.99318 153.201 9.78127 154.478 9.80848H154.923C156.2 9.78127 157.47 9.99318 158.671 10.4336C159.67 10.8112 160.571 11.4162 161.304 12.202C162.014 12.9845 162.546 13.9149 162.864 14.9279C163.214 16.0578 163.385 17.2369 163.371 18.4213V19.1176C163.385 20.3006 163.214 21.4784 162.864 22.607C162.553 23.625 162.013 24.5555 161.286 25.3246C160.559 26.0938 159.665 26.6805 158.675 27.038C157.474 27.477 156.203 27.6875 154.927 27.6592H154.482C153.206 27.6875 151.935 27.477 150.734 27.038C149.744 26.681 148.85 26.0945 148.124 25.3252C147.397 24.5559 146.858 23.6251 146.548 22.607C146.195 21.479 146.023 20.3009 146.037 19.1176L146.026 18.4213ZM154.544 13.1476C153.899 13.1225 153.259 13.2655 152.684 13.563C152.201 13.8326 151.797 14.2271 151.514 14.7063C151.21 15.2274 151.006 15.8019 150.913 16.3996C150.797 17.0869 150.741 17.7833 150.745 18.4806V19.0464C150.741 19.7424 150.797 20.4374 150.913 21.1234C151.006 21.7151 151.21 22.2832 151.514 22.7969C151.799 23.269 152.203 23.6555 152.684 23.9165C153.262 24.2033 153.901 24.3393 154.544 24.3121H154.845C155.486 24.3389 156.125 24.2029 156.701 23.9165C157.181 23.6535 157.585 23.2674 157.872 22.7969C158.173 22.2822 158.375 21.7144 158.468 21.1234C158.584 20.4374 158.64 19.7424 158.636 19.0464V18.4806C158.641 17.7833 158.584 17.0869 158.468 16.3996C158.374 15.8026 158.172 15.2285 157.872 14.7063C157.586 14.2286 157.183 13.8346 156.701 13.563C156.128 13.266 155.488 13.123 154.845 13.1476H154.544ZM176.641 20.2412H170.439V27.1963L170.201 27.4257H166.254L166.012 27.1963V10.4019L166.254 10.1685H170.213L170.451 10.4019V16.8783H176.652V10.4019L176.894 10.1685H180.853L181.091 10.4019V27.1963L180.853 27.4257H176.894L176.652 27.1963L176.641 20.2412Z" fill="#515656"/>
</svg>
