<svg width="81" height="80" viewBox="0 0 81 80" fill="none" xmlns="http://www.w3.org/2000/svg">
<g clip-path="url(#clip0_2012_374)">
<path d="M24.3798 80.0002C24.3798 72.5231 24.3798 65.0403 24.3798 57.552C24.3686 57.061 24.237 56.5803 23.9965 56.1521C23.0466 54.4856 22.0467 52.7191 21.0301 51.0192C20.8228 50.6645 20.5308 50.3667 20.1802 50.1526C18.1637 48.9693 16.1971 47.8194 14.1306 46.6695C13.933 46.5797 13.7687 46.43 13.661 46.2415C13.5533 46.053 13.5077 45.8354 13.5307 45.6196C13.5307 43.3365 13.5307 41.0366 13.5307 38.7368C13.5211 38.2783 13.4071 37.8281 13.1974 37.4202C12.0808 35.4371 10.9476 33.4706 9.86431 31.5374C9.71148 31.3329 9.62891 31.0844 9.62891 30.8291C9.62891 30.5738 9.71148 30.3253 9.86431 30.1208C11.0475 28.1876 12.1641 26.2211 13.1974 24.2379C13.4346 23.8153 13.5607 23.3394 13.564 22.8547C13.564 20.5882 13.564 18.3051 13.564 16.0386C13.5485 15.8239 13.5993 15.6097 13.7096 15.4249C13.8199 15.2401 13.9843 15.0936 14.1806 15.0053C16.1805 13.8943 18.1637 12.7444 20.1302 11.5556C20.5049 11.3337 20.8151 11.0177 21.0301 10.639C22.2522 8.65028 23.4188 6.656 24.5298 4.65615C24.6227 4.44679 24.7786 4.27163 24.9757 4.15511C25.1729 4.0386 25.4016 3.98654 25.6297 4.0062C27.8462 4.0062 30.0627 4.0062 32.2959 4.0062C32.9086 3.98195 33.5074 3.81656 34.0457 3.52291C35.9289 2.45632 37.8621 1.33975 39.7453 0.206501C39.9261 0.0725498 40.1452 0.000244141 40.3702 0.000244141C40.5953 0.000244141 40.8144 0.0725498 40.9952 0.206501C42.9784 1.37308 44.9616 2.52299 46.9614 3.63957C47.3642 3.86414 47.8168 3.98445 48.278 3.98954C50.5 3.98954 52.7665 3.98954 55.0774 3.98954C55.3184 3.97065 55.5594 4.02601 55.7679 4.14816C55.9765 4.27032 56.1426 4.45341 56.244 4.67282C57.3606 6.67266 58.5105 8.6725 59.6771 10.6557C59.9007 10.9986 60.1965 11.2887 60.5437 11.5056C62.5435 12.6889 64.5434 13.8554 66.5599 14.9887C66.7592 15.0728 66.9266 15.2184 67.0375 15.4043C67.1484 15.5901 67.1971 15.8065 67.1765 16.0219C67.1765 18.3384 67.1765 20.6716 67.1765 22.988C67.1812 23.3954 67.2841 23.7955 67.4765 24.1546C68.6097 26.1545 69.7429 28.1543 70.9262 30.1208C71.0857 30.332 71.172 30.5894 71.172 30.8541C71.172 31.1188 71.0857 31.3762 70.9262 31.5874C69.7596 33.5372 68.6264 35.5037 67.5931 37.4702C67.3764 37.8513 67.2616 38.2818 67.2598 38.7201C67.2598 41.0366 67.2598 43.3698 67.2598 45.6863C67.2772 45.8905 67.2303 46.0951 67.1258 46.2714C67.0212 46.4477 66.8641 46.5869 66.6765 46.6695C64.6433 47.8194 62.6102 48.986 60.5937 50.1859C60.2646 50.3818 59.9896 50.6568 59.7937 50.9859C58.7605 52.6524 57.7439 54.4356 56.7773 56.2021C56.5554 56.6 56.4352 57.0465 56.4273 57.502C56.4273 60.1185 56.4273 62.7183 56.4273 65.3847H54.0108V57.6353H47.9447C47.2614 57.6353 46.9281 57.902 46.9281 58.6686C46.9281 63.6682 46.9281 68.6678 46.9281 73.6674C46.9281 73.9174 47.0781 74.3507 47.2447 74.4174C49.4445 75.2173 51.661 75.9506 53.9109 76.7505V72.5842H56.244V80.0002H56.194C56.1341 79.9464 56.0668 79.9015 55.994 79.8669C50.9278 78.1115 45.8615 76.3728 40.7952 74.6507C40.4522 74.552 40.0883 74.552 39.7453 74.6507L32.3625 77.1838L24.5298 80.0002H24.3798ZM64.81 21.0382C64.81 19.4717 64.81 18.3884 64.81 17.3218C64.8289 17.1195 64.7825 16.9165 64.6775 16.7425C64.5725 16.5685 64.4145 16.4328 64.2267 16.3552C62.4602 15.3386 60.6603 14.3221 58.8938 13.3388C58.4731 13.0801 58.1192 12.7262 57.8605 12.3056C56.8273 10.639 55.8274 8.85582 54.8608 7.08929C54.7553 6.84341 54.5737 6.63786 54.3427 6.50286C54.1118 6.36787 53.8435 6.31056 53.5775 6.33935C51.5777 6.33935 49.5612 6.33935 47.5614 6.33935C47.1014 6.3258 46.6508 6.20602 46.2448 5.98938C44.5283 5.00612 42.7284 3.95621 40.9452 2.90629C40.7701 2.78139 40.5603 2.71427 40.3452 2.71427C40.1302 2.71427 39.9204 2.78139 39.7453 2.90629C37.9954 3.95621 36.1956 5.00612 34.529 5.95605C34.1038 6.18913 33.6303 6.32035 33.1458 6.33935C31.1571 6.33935 29.1739 6.33935 27.1963 6.33935C26.9204 6.30089 26.6394 6.35326 26.3959 6.48855C26.1524 6.62384 25.9595 6.83471 25.8464 7.08929C24.8798 8.85582 23.8632 10.589 22.83 12.3056C22.5765 12.7303 22.2215 13.0854 21.7967 13.3388C20.1302 14.3721 18.347 15.372 16.5804 16.3552C16.3458 16.4488 16.1485 16.617 16.0189 16.8338C15.8894 17.0507 15.8349 17.3042 15.8638 17.5551C15.8638 19.5883 15.8638 21.6215 15.8638 23.6547C15.8537 24.0919 15.7394 24.5204 15.5305 24.9046C14.5306 26.6711 13.4974 28.421 12.4474 30.1875C12.3145 30.3719 12.243 30.5935 12.243 30.8208C12.243 31.0481 12.3145 31.2696 12.4474 31.4541C13.4974 33.2206 14.5306 35.0038 15.5139 36.8036C15.7359 37.2075 15.856 37.6594 15.8638 38.1202C15.8638 40.1534 15.8638 42.1865 15.8638 44.2364C15.8336 44.4618 15.8774 44.6909 15.9886 44.8892C16.0998 45.0876 16.2724 45.2445 16.4805 45.3363C18.297 46.3362 20.0968 47.4028 21.8967 48.4694C22.2258 48.6653 22.5008 48.9402 22.6966 49.2693C23.7632 51.0525 24.8131 52.869 25.8297 54.6856C25.9216 54.8936 26.0784 55.0662 26.2768 55.1774C26.4752 55.2886 26.7043 55.3324 26.9296 55.3022C28.9961 55.3022 31.046 55.3022 33.1125 55.3022C33.5211 55.3127 33.9212 55.4213 34.2791 55.6188C36.1289 56.6354 37.9621 57.702 39.7786 58.7686C39.9409 58.8865 40.1363 58.9499 40.3369 58.9499C40.5375 58.9499 40.7329 58.8865 40.8952 58.7686C42.7117 57.6853 44.5449 56.6354 46.3948 55.6022C46.7526 55.4046 47.1527 55.296 47.5614 55.2855C49.6501 55.2855 51.7332 55.2855 53.8109 55.2855C54.0137 55.3068 54.2183 55.2655 54.397 55.1672C54.5757 55.0689 54.7201 54.9183 54.8108 54.7356C55.8107 52.9357 56.8273 51.1525 57.8939 49.386C58.1548 48.9772 58.5017 48.6303 58.9105 48.3694C60.577 47.3528 62.3269 46.3695 64.0601 45.403C64.303 45.2983 64.5065 45.1194 64.6412 44.8918C64.776 44.6642 64.8351 44.3997 64.81 44.1364C64.81 42.1032 64.81 40.0534 64.81 38.0202C64.8324 37.6134 64.9403 37.2159 65.1266 36.8536C66.1932 35.0038 67.1765 33.3372 68.2264 31.5207C68.3724 31.3291 68.4514 31.0949 68.4514 30.8541C68.4514 30.6132 68.3724 30.3791 68.2264 30.1875C67.6431 29.3042 67.2098 28.3376 66.5599 27.4877C65.8389 26.5916 65.3112 25.556 65.0101 24.4461C64.7089 23.3361 64.6408 22.1758 64.81 21.0382ZM26.763 57.702V76.6672C29.0461 75.8839 31.246 75.1173 33.4291 74.3174C33.5958 74.3174 33.7291 73.8841 33.7291 73.6507C33.7291 68.6511 33.7291 63.6515 33.7291 58.5686C33.7291 57.9186 33.4291 57.6187 32.8792 57.6187C30.896 57.6187 28.8628 57.6353 26.763 57.6353V57.702ZM36.1956 73.4674C37.4455 73.0341 38.5954 72.6008 39.762 72.2675C40.193 72.1507 40.6474 72.1507 41.0785 72.2675C42.2618 72.6175 43.4117 73.0508 44.5949 73.4508V59.4019C43.621 59.9055 42.6752 60.4619 41.7618 61.0684C41.3931 61.4057 40.9116 61.5927 40.4119 61.5927C39.9122 61.5927 39.4307 61.4057 39.062 61.0684C38.137 60.4621 37.1801 59.9058 36.1956 59.4019V73.4674Z" fill="black"/>
<path d="M56.2938 67.8352V70.085H54.0273V67.8352H56.2938Z" fill="black"/>
<path d="M26.8127 15.722L25.3129 14.0554C29.7657 10.2494 35.5283 8.33161 41.3739 8.71042C47.2194 9.08923 52.6863 11.7347 56.6107 16.0836C60.5351 20.4326 62.6071 26.1415 62.3855 31.9952C62.164 37.8488 59.6665 43.3848 55.4246 47.4247C51.1827 51.4646 45.5315 53.6893 39.674 53.6252C33.8166 53.5611 28.2154 51.2132 24.063 47.0815C19.9105 42.9497 17.5347 37.3604 17.4413 31.5033C17.348 25.6462 19.5444 19.984 23.563 15.722L25.2295 17.2219C21.6684 21.1536 19.782 26.3196 19.9715 31.6209C20.1611 36.9222 22.4117 41.9404 26.2445 45.6077C30.0773 49.275 35.1899 51.302 40.4944 51.2575C45.7989 51.2131 50.8767 49.1005 54.6475 45.3695C58.4183 41.6384 60.5844 36.5832 60.685 31.2795C60.7856 25.9757 58.8128 20.842 55.1862 16.9706C51.5597 13.0992 46.5656 10.7956 41.2666 10.55C35.9676 10.3043 30.7819 12.136 26.8127 15.6553V15.722Z" fill="black"/>
<path d="M38.6784 38.9696L30.5957 30.9036L35.4953 26.004L38.6117 29.337L45.2779 22.6709L50.1608 27.5705L38.6784 38.9696ZM45.3445 25.8207L38.6784 32.4868L35.6453 29.1537L33.9788 30.6203L38.7951 35.4199L46.9278 27.3039L45.3445 25.8207Z" fill="#F3262D"/>
<path d="M48.6113 16.4883H50.8445V18.7548H48.6113V16.4883Z" fill="black"/>
<path d="M43.9121 16.4055V14.1724H46.1953V16.4055H43.9121Z" fill="black"/>
</g>
<defs>
<clipPath id="clip0_2012_374">
<rect width="80" height="80" fill="white" transform="translate(0.400391)"/>
</clipPath>
</defs>
</svg>
