<svg width="81" height="80" viewBox="0 0 81 80" fill="none" xmlns="http://www.w3.org/2000/svg">
<path d="M40.1997 76.9461C40.285 76.4761 40.2346 75.9916 40.0544 75.5493C39.8742 75.1069 39.5716 74.7251 39.1822 74.4486C38.2572 73.6469 37.4247 72.7219 36.5614 71.8586L36.4072 71.6273C37.286 70.764 38.1493 69.8236 39.1051 69.0219C39.5697 68.7119 39.9252 68.264 40.1216 67.7412C40.3179 67.2185 40.3453 66.6473 40.1997 66.1081C46.761 66.0668 53.0701 63.576 57.89 59.124C62.7099 54.672 65.6928 48.5801 66.2539 42.0427C66.7283 42.1162 67.1934 42.2402 67.6414 42.4127C68.3351 42.7673 68.3197 43.3994 68.2118 44.0777C67.6961 47.7304 66.4636 51.2452 64.5851 54.4201C62.7067 57.5949 60.2193 60.3673 57.266 62.5777C53.3158 65.613 48.6166 67.5204 43.6685 68.0969C43.2964 68.1595 42.9492 68.325 42.6664 68.5748C41.5872 69.5923 40.5389 70.6561 39.4135 71.7661C40.4001 72.7219 41.3097 73.6469 42.2656 74.5256C42.5065 74.6696 42.7886 74.7293 43.0672 74.6952C48.6338 74.2796 54.0078 72.4776 58.6997 69.4536C62.7664 66.9326 66.2635 63.5922 68.9682 59.6453C71.673 55.6984 73.526 51.2315 74.4093 46.529C74.5635 45.8017 74.6716 45.0653 74.7331 44.3244C74.7932 43.7494 75.0364 43.209 75.4268 42.7827C75.6084 42.4949 75.8938 42.2879 76.2239 42.2047C76.5539 42.1215 76.9033 42.1683 77.1997 42.3356C77.061 43.5381 76.9993 44.7715 76.7681 45.9894C75.7674 52.2178 73.1733 58.0816 69.2375 63.0114C65.3017 67.9413 60.1581 71.7696 54.306 74.1248C50.7649 75.6467 46.9903 76.5538 43.1443 76.8073C42.9306 76.8387 42.7194 76.8851 42.5122 76.9461H40.1997Z" fill="black"/>
<path d="M77.1999 40.0537C76.7299 39.9684 76.2454 40.0188 75.8031 40.1991C75.3607 40.3793 74.9789 40.6818 74.7024 41.0712C73.8699 42.0425 72.9295 42.8904 71.9582 43.877C70.9561 42.875 69.9541 41.95 69.0599 40.9325C68.8108 40.5991 68.4748 40.3408 68.0886 40.1858C67.7025 40.0308 67.2811 39.9851 66.8707 40.0537C66.7527 40.0616 66.6342 40.0616 66.5161 40.0537C65.0978 25.1458 57.1582 16.4508 42.3736 13.8454C42.2965 12.5658 43.0365 11.8875 44.4857 12.1495C49.2758 12.8491 53.8025 14.7793 57.6234 17.7517C61.4443 20.7241 64.4287 24.637 66.2849 29.1079C67.3082 31.4687 67.9783 33.9673 68.2736 36.5233C68.3408 36.9138 68.5172 37.2773 68.7824 37.5716C69.7845 38.6508 70.8328 39.6683 71.8657 40.7783C72.837 39.807 73.7774 38.882 74.6716 37.9262C74.8122 37.7126 74.8672 37.4539 74.8257 37.2016C74.5109 32.6572 73.2451 28.2295 71.1103 24.2054C68.6637 19.3567 65.1071 15.1541 60.7298 11.9394C56.3525 8.72475 51.2781 6.58881 45.9195 5.70538C45.45 5.58987 44.9691 5.52781 44.4857 5.52038C44.1142 5.50868 43.7519 5.40192 43.4334 5.21029C43.1149 5.01865 42.8509 4.74855 42.6665 4.42579C42.4661 4.14829 42.5278 3.67038 42.4353 3.05371C43.7611 3.20788 44.9636 3.28496 46.1353 3.48538C50.9396 4.25666 55.5416 5.9794 59.6714 8.55258C63.8012 11.1258 67.3757 14.4976 70.1853 18.4704C73.9131 23.526 76.2374 29.4777 76.9224 35.7216L77.1999 37.8491V40.0537Z" fill="black"/>
<path d="M3.2002 40.0533C3.70519 40.1468 4.22641 40.0934 4.70193 39.8993C5.17744 39.7053 5.58726 39.3789 5.8827 38.9588C6.68436 38.0029 7.60936 37.1704 8.54978 36.2146C9.59811 37.2783 10.631 38.2496 11.6331 39.2979C11.846 39.5863 12.134 39.8106 12.4657 39.9465C12.7973 40.0825 13.1599 40.1247 13.5139 40.0688H13.9302C15.3023 54.8688 23.2419 63.5483 38.0264 66.2617C38.0776 66.5225 38.0605 66.7921 37.9768 67.0444C37.893 67.2966 37.7455 67.523 37.5484 67.7014C37.3514 67.8798 37.1116 68.0042 36.8523 68.0626C36.593 68.121 36.323 68.1113 36.0685 68.0346C30.3536 67.1897 25.0343 64.6153 20.8258 60.6576C16.6173 56.6999 13.7213 51.5486 12.5273 45.8963C12.3527 45.2721 12.2442 44.6314 12.2035 43.9846C12.1944 43.5668 12.0945 43.156 11.9108 42.7807C11.7271 42.4054 11.464 42.0744 11.1398 41.8108C10.261 41.0246 9.45936 40.1613 8.5652 39.2671C7.57853 40.2538 6.59186 41.2096 5.66686 42.2117C5.52226 42.4523 5.47277 42.7382 5.52811 43.0133C5.87459 47.5277 7.13887 51.9238 9.24353 55.9325C11.4751 60.3527 14.6413 64.2347 18.5226 67.3094C22.4039 70.3841 26.9074 72.5779 31.721 73.7388C33.1394 74.1088 34.6039 74.2783 36.0531 74.5096C36.6054 74.5938 37.1041 74.8873 37.4457 75.3294C37.7873 75.7715 37.9456 76.3281 37.8877 76.8838C36.6698 76.745 35.421 76.6833 34.2185 76.4521C20.2716 73.7696 10.6824 65.8249 5.45103 52.6179C4.26585 49.5407 3.54872 46.3032 3.32353 43.0133C3.2974 42.7797 3.25621 42.5479 3.2002 42.3196L3.2002 40.0533Z" fill="black"/>
<path d="M40.9865 8.49579C39.9536 7.47829 38.9978 6.49163 37.9032 5.58204C37.5979 5.41387 37.2447 5.3541 36.9011 5.41246C33.0338 5.7259 29.2538 6.72834 25.7394 8.37246C20.9215 10.5369 16.6672 13.7824 13.3064 17.857C9.94569 21.9316 7.56896 26.7258 6.36068 31.8675C6.02151 33.1933 5.85193 34.55 5.63609 35.9066C5.59682 36.1753 5.50416 36.4335 5.36357 36.6658C5.22298 36.8982 5.03731 37.1001 4.81749 37.2595C4.59767 37.419 4.34816 37.5329 4.08365 37.5944C3.81914 37.656 3.54498 37.6639 3.27734 37.6179C3.79142 28.8764 7.45548 20.6172 13.5911 14.3695C17.0063 10.7925 21.1117 7.94531 25.6589 6.00032C30.206 4.05532 35.1004 3.05291 40.0461 3.05371C40.1386 3.16163 40.1848 3.17704 40.1694 3.19246C40.0866 3.7619 40.1707 4.34313 40.4115 4.86576C40.6523 5.38839 41.0394 5.82998 41.5261 6.13704C42.3432 6.84621 43.0678 7.67871 43.8386 8.41871L43.9928 8.63454C43.1294 9.49788 42.2815 10.392 41.3565 11.2245C40.915 11.4867 40.5662 11.8801 40.359 12.3499C40.1517 12.8197 40.0962 13.3425 40.2003 13.8454C33.6163 13.8519 27.278 16.3464 22.4557 20.8291C17.6182 25.2159 14.6308 31.2788 14.0998 37.7875C13.843 37.8687 13.5693 37.8812 13.3061 37.8237C13.0429 37.7663 12.7993 37.6408 12.5997 37.4599C12.4 37.279 12.2513 37.0489 12.1683 36.7926C12.0853 36.5363 12.0709 36.2627 12.1265 35.9991C12.9758 30.2176 15.589 24.8391 19.6092 20.5981C23.6294 16.3572 28.8606 13.4605 34.5886 12.3037C35.092 12.166 35.609 12.0833 36.1303 12.057C36.622 12.0453 37.1047 11.9228 37.5425 11.6986C37.9802 11.4744 38.3618 11.1542 38.6586 10.762C39.3986 9.96038 40.2003 9.22038 40.9865 8.49579Z" fill="black"/>
<path d="M50.9915 40.0534C50.9915 42.1878 50.3586 44.2742 49.1728 46.0489C47.987 47.8236 46.3016 49.2068 44.3297 50.0236C42.3577 50.8404 40.1879 51.0541 38.0945 50.6377C36.0011 50.2213 34.0783 49.1935 32.569 47.6842C31.0598 46.175 30.032 44.2521 29.6156 42.1587C29.1992 40.0654 29.4129 37.8955 30.2297 35.9236C31.0465 33.9517 32.4297 32.2662 34.2043 31.0804C35.979 29.8946 38.0655 29.2617 40.1999 29.2617C43.062 29.2617 45.8069 30.3987 47.8307 32.4225C49.8546 34.4464 50.9915 37.1913 50.9915 40.0534ZM40.1999 48.6713C41.9074 48.6683 43.5756 48.1589 44.9937 47.2078C46.4117 46.2566 47.5159 44.9063 48.1665 43.3276C48.8171 41.7489 48.985 40.0127 48.6489 38.3386C48.3128 36.6645 47.4878 35.1276 46.2782 33.9224C45.0687 32.7172 43.5289 31.8977 41.8536 31.5675C40.1783 31.2374 38.4427 31.4115 36.8664 32.0677C35.29 32.724 33.9437 33.8329 32.9975 35.2544C32.0514 36.6758 31.5481 38.3459 31.5511 40.0534C31.5794 42.3327 32.5016 44.5098 34.1192 46.1158C35.7368 47.7219 37.9204 48.6285 40.1999 48.6405V48.6713Z" fill="#F3262D"/>
<path d="M45.6113 72.6447H43.5146V70.5635H45.6113V72.6447Z" fill="black"/>
<path d="M72.8994 34.6274V36.6779H70.8027V34.6274H72.8994Z" fill="black"/>
<path d="M22.9027 38.0028L20.7598 37.7562L21.1298 35.5208L23.2418 36.0141L22.9027 38.0028Z" fill="black"/>
<path d="M56.5731 50.7371L54.7539 49.5501L55.756 47.7617L57.6985 48.733L56.5731 50.7371Z" fill="black"/>
<path d="M52.1484 52.6493L53.5359 51.1077L55.2009 52.4798L53.6593 54.1447L52.1484 52.6493Z" fill="black"/>
<path d="M36.9011 7.58667V9.63709H34.7891V7.58667H36.9011Z" fill="black"/>
<path d="M50.5762 26.0556L51.8712 24.3135L53.6133 25.7626L52.0716 27.3043L50.5762 26.0556Z" fill="black"/>
<path d="M22.903 42.027L20.7446 42.2891L20.6367 40.0537H22.7951L22.903 42.027Z" fill="black"/>
<path d="M58.6082 46.6827L56.5732 45.9427L57.1591 44.0156L59.2712 44.509L58.6082 46.6827Z" fill="black"/>
<path d="M25.1387 52.6489L26.8653 51.1997L28.2683 52.6489L26.8191 54.1905L25.1387 52.6489Z" fill="black"/>
<path d="M30.4255 57.012L28.5293 55.7787L29.8089 53.9287L31.4893 55.0079L30.4255 57.012Z" fill="black"/>
<path d="M48.9102 55.0695L50.5906 53.9287L51.901 55.6708L50.0047 56.9041L48.9102 55.0695Z" fill="black"/>
<path d="M37.1173 22.8954L35.1594 23.3579L34.5273 21.3074L36.7319 20.7524L37.1173 22.8954Z" fill="black"/>
<path d="M47.0762 24.0356L47.9087 22.0469L49.9283 23.049L48.8645 24.9298L47.0762 24.0356Z" fill="black"/>
<path d="M25.6475 30.4641L23.8438 29.2616L25.185 27.427L26.8346 28.8145L25.6475 30.4641Z" fill="black"/>
<path d="M54.723 30.4187L53.5205 28.877L55.1701 27.4895L56.5422 29.2624L54.723 30.4187Z" fill="black"/>
<path d="M9.70625 43.322V45.4033H7.625V43.322H9.70625Z" fill="black"/>
<path d="M23.242 44.031L23.8278 45.9581L21.7928 46.6981L21.1299 44.5552L23.242 44.031Z" fill="black"/>
<path d="M33.3093 55.9639L35.2055 56.6576L34.6043 58.7235L32.4922 57.968L33.3093 55.9639Z" fill="black"/>
<path d="M36.8242 59.263L37.1171 57.1355L39.1367 57.3513L38.998 59.5097L36.8242 59.263Z" fill="black"/>
<path d="M39.1825 22.6333L39.0283 20.552H41.2792L41.1867 22.6333H39.1825Z" fill="black"/>
<path d="M43.2832 22.8954L43.6532 20.7524L45.8578 21.2612L45.2565 23.3116L43.2832 22.8954Z" fill="black"/>
<path d="M31.4747 24.9606L30.3955 23.0952L32.3997 22.0623L33.2784 24.051L31.4747 24.9606Z" fill="black"/>
<path d="M29.7943 26.0706L28.2526 27.381L26.7109 25.8393L28.4376 24.3901L29.7943 26.0706Z" fill="black"/>
<path d="M55.7402 32.1761L57.6827 31.2048L58.5923 33.2707L56.5573 34.0261L55.7402 32.1761Z" fill="black"/>
<path d="M59.6557 37.695L57.4974 37.9416L57.1582 35.9837L59.2395 35.4287L59.6557 37.695Z" fill="black"/>
<path d="M23.8586 50.7526L22.7178 48.8101L24.6449 47.7617L25.6624 49.5038L23.8586 50.7526Z" fill="black"/>
<path d="M45.8276 58.7389L45.2109 56.6576L47.1072 55.9639L47.9089 57.9372L45.8276 58.7389Z" fill="black"/>
<path d="M57.5742 42.0116V40.0537H59.6709V42.2737L57.5742 42.0116Z" fill="black"/>
<path d="M43.5919 59.263L41.3719 59.5097L41.2178 57.3668L43.2836 57.1201L43.5919 59.263Z" fill="black"/>
<path d="M21.8086 33.3319C21.9628 32.9311 22.1015 32.5765 22.2557 32.2374C22.4098 31.8982 22.5332 31.6361 22.7028 31.2661L24.6298 32.2219L23.8282 34.0719L21.8086 33.3319Z" fill="black"/>
<path d="M36.8859 37.8027H34.8047V35.7214H36.8859V37.8027Z" fill="#F3262D"/>
</svg>
