<svg width="80" height="80" viewBox="0 0 80 80" fill="none" xmlns="http://www.w3.org/2000/svg">
<path d="M32.9975 76.9846C32.9975 75.3206 32.9975 73.6721 32.9975 72.0081C32.9975 71.8232 32.6585 71.5613 32.412 71.4688C30.0856 70.5906 27.7129 69.7895 25.4018 68.8651C24.5215 68.4759 23.6762 68.012 22.8751 67.4784C22.8144 67.4251 22.743 67.3854 22.6658 67.3617C22.5886 67.3381 22.5072 67.3312 22.4271 67.3414C22.347 67.3516 22.2699 67.3787 22.2011 67.4209C22.1322 67.4631 22.0731 67.5195 22.0277 67.5863C20.9184 68.7264 19.7937 69.8511 18.7152 70.9142L9.00874 61.1769C10.0256 60.1601 11.1041 59.0508 12.2134 58.0031C12.3059 57.9425 12.3843 57.8626 12.4432 57.769C12.5021 57.6754 12.5402 57.5702 12.5548 57.4606C12.5694 57.3509 12.5602 57.2394 12.5279 57.1337C12.4956 57.0279 12.4409 56.9303 12.3675 56.8476C10.5639 53.9687 9.25664 50.8074 8.50031 47.4955C8.49488 47.3918 8.46623 47.2906 8.41646 47.1995C8.3667 47.1084 8.29709 47.0296 8.21279 46.9689C8.12849 46.9083 8.03165 46.8674 7.92941 46.8492C7.82717 46.831 7.72216 46.836 7.62211 46.8638C6.08141 46.8638 4.5407 46.8638 3 46.8638V33.0899H4.03227C5.17239 33.0899 6.31251 33.0899 7.43723 33.0899C7.56339 33.1215 7.69485 33.1257 7.82275 33.1021C7.95065 33.0785 8.072 33.0278 8.17861 32.9533C8.28522 32.8788 8.37461 32.7823 8.44074 32.6703C8.50687 32.5584 8.5482 32.4335 8.56194 32.3042C9.26785 29.1026 10.513 26.0444 12.2442 23.2602C12.5986 22.6902 12.614 22.3512 12.0902 21.8736C10.9808 20.8721 9.96398 19.7782 9.00874 18.7922L18.7614 9.03953C19.7937 10.0872 20.8876 11.1657 21.9507 12.275C22.305 12.6448 22.5669 12.7526 23.0446 12.4445C25.9172 10.6363 29.0734 9.32382 32.3812 8.56191C32.9667 8.43866 33.0899 8.17674 33.0745 7.63749C33.0745 6.09679 33.0745 4.55608 33.0745 3.01538H46.8484V7.26772C46.8484 8.36162 46.8484 8.36162 47.8961 8.62354C51.0863 9.41903 54.1326 10.7082 56.9246 12.4445C56.9998 12.5 57.0855 12.5397 57.1764 12.5613C57.2673 12.5828 57.3617 12.5858 57.4538 12.5699C57.5459 12.5541 57.6338 12.5198 57.7124 12.4691C57.7909 12.4185 57.8583 12.3524 57.9107 12.275C58.9738 11.1503 60.0985 10.0564 61.1616 8.99331L70.8988 18.7152L69.2503 20.4716C68.7264 20.98 68.2488 21.5192 67.7096 22.0123C67.6188 22.0648 67.5412 22.1373 67.4825 22.2242C67.4238 22.3112 67.3856 22.4103 67.3708 22.5141C67.3559 22.6179 67.3649 22.7238 67.3969 22.8237C67.4288 22.9235 67.4831 23.0149 67.5555 23.0907C69.049 25.4907 70.21 28.0821 71.0067 30.7943C71.1916 31.426 71.3148 32.0576 71.5151 32.6739C71.5151 32.8588 71.8386 33.1207 72.0235 33.1207C73.6721 33.1207 75.336 33.1207 77 33.1207V46.9871C75.336 46.9871 73.6721 46.9871 72.0235 46.9871C71.8232 46.9871 71.5767 47.3414 71.4843 47.5725C70.5907 49.9298 69.7741 52.3179 68.8651 54.6598C68.4693 55.5122 68.0056 56.3314 67.4784 57.1095C67.4256 57.1725 67.3867 57.2459 67.3641 57.325C67.3416 57.4041 67.3359 57.487 67.3476 57.5684C67.3592 57.6498 67.3878 57.7278 67.4316 57.7974C67.4754 57.867 67.5334 57.9266 67.6017 57.9723C68.7418 59.0662 69.8665 60.2063 70.945 61.2694L61.2078 71.0066C60.1601 69.959 59.0354 68.8805 57.9569 67.7403C57.6025 67.3706 57.356 67.3706 56.9246 67.6325C55.7229 68.3412 54.4903 68.9729 53.2115 69.6816L52.3025 67.6479L57.8028 64.474L61.1153 67.9098L67.7096 61.1923L64.2738 57.849C64.813 57.0016 65.3061 56.3083 65.8145 55.5072C67.6976 52.3916 68.9878 48.9544 69.62 45.3693C69.7125 44.8147 69.9282 44.676 70.452 44.6914C71.8695 44.6914 73.2869 44.6914 74.7198 44.6914V35.2777C73.3485 35.2777 71.9773 35.2777 70.6215 35.2777C69.9744 35.2777 69.6971 35.1236 69.5892 34.4611C68.7897 30.0427 67.0044 25.8614 64.3662 22.228L67.8636 18.8076L61.1616 12.0747L57.8028 15.4643C56.0772 14.4936 54.4441 13.523 52.7647 12.6602C50.382 11.501 47.8445 10.6916 45.2307 10.2567C44.7685 10.1797 44.6452 10.0102 44.6452 9.56337C44.6452 8.13052 44.6452 6.68226 44.6452 5.20318H35.2315C35.2315 6.58981 35.2315 7.94563 35.2315 9.31686C35.2315 9.90233 35.1391 10.1951 34.4766 10.3183C30.1668 11.0898 26.0828 12.8108 22.5207 15.3564L22.1664 15.5875L18.823 12.0747L12.121 18.7768L15.5721 22.0585C14.925 23.0599 14.355 23.9381 13.7849 24.8163C12.0323 27.7875 10.8268 31.0489 10.2259 34.4457C10.1181 35.062 9.90235 35.3239 9.20904 35.2931C7.85322 35.2161 6.48199 35.2931 5.07995 35.2931V44.6298H8.59275C10.1335 44.6298 10.1335 44.6298 10.3954 46.0626C11.2572 50.2417 12.9953 54.1906 15.4951 57.6487L11.9669 61.1307L18.7152 67.8636L22.0277 64.5049C23.9228 65.5371 25.6792 66.5694 27.4972 67.4784C29.6464 68.5175 31.9351 69.2389 34.2917 69.62C35.0158 69.7433 35.2932 69.9744 35.2469 70.7601C35.1699 72.0697 35.2469 73.3947 35.2469 74.766H44.599C44.599 73.3947 44.599 72.0235 44.599 70.6677C44.599 69.9898 44.7993 69.7587 45.431 69.6354C46.5711 69.4505 47.6804 69.1424 48.8513 68.8805L49.5293 70.8217C48.7589 71.022 47.9885 71.2069 47.2952 71.438C47.187 71.4832 47.0904 71.5524 47.013 71.6405C46.9356 71.7287 46.8793 71.8333 46.8484 71.9465C46.8484 73.6104 46.8484 75.259 46.8484 76.9229L32.9975 76.9846Z" fill="black"/>
<path d="M55.461 25.9568L52.3796 29.0382L50.8389 27.4975L53.9203 24.4161C50.3535 21.1858 45.7836 19.2817 40.9784 19.0236V23.6457H38.8984V19.0236C36.2328 19.131 33.6147 19.7645 31.1949 20.8878L30.3167 19.0082C35.6713 16.4858 41.7961 16.1413 47.3998 18.0473C53.0034 19.9532 57.648 23.9607 60.3541 29.2248C63.0603 34.4889 63.6166 40.5981 61.9057 46.2643C60.1948 51.9306 56.3504 56.7111 51.1832 59.5978C46.016 62.4845 39.9296 63.2519 34.2076 61.7382C28.4855 60.2244 23.5748 56.5478 20.511 51.4835C17.4472 46.4193 16.4696 40.3632 17.7844 34.5922C19.0992 28.8211 22.6037 23.7862 27.5589 20.5489L28.6836 22.2591L25.3249 24.9399L28.0673 27.4821L26.3263 29.223L23.9228 26.6039C20.9668 30.0445 19.2808 34.3953 19.1466 38.9295H23.6917V41.1019H19.1774C19.2739 45.5743 20.9059 49.8773 23.7996 53.2888L26.2339 50.7929L27.8978 52.5031L25.2478 54.9066C28.9002 58.4984 33.7373 60.6348 38.8522 60.9153V56.2932H41.0246V60.9153C45.8215 60.6791 50.3887 58.7901 53.9511 55.5691L50.7156 52.4877L52.2564 50.947L55.3378 54.0284C58.5637 50.4589 60.4672 45.8905 60.7302 41.0865H56.1081V38.9141H60.7302C60.5074 34.1195 58.6476 29.5461 55.461 25.9568Z" fill="black"/>
<path d="M47.6808 46.1701L46.1401 47.7108L42.843 44.3983C41.6875 43.2427 40.5165 42.0872 39.3764 40.9163C39.1609 40.7049 39.0203 40.4291 38.9758 40.1305C38.9758 36.741 38.9758 33.3514 38.9758 29.9619C38.9664 29.8748 38.9664 29.787 38.9758 29.7H41.0712V30.5319C41.0712 33.336 41.0712 36.1555 41.0712 38.975C41.1112 39.3566 41.2672 39.7168 41.518 40.0073C43.5209 42.0564 45.57 44.0901 47.6808 46.1701Z" fill="#F3262D"/>
<path d="M9.79446 38.9604V41.025H7.62207V38.9604H9.79446Z" fill="black"/>
<path d="M72.3317 38.9604V41.025H70.0977V38.9604H72.3317Z" fill="black"/>
<path d="M38.8057 9.73278V7.65283H41.0551V9.73278H38.8057Z" fill="black"/>
<path d="M41.0553 72.3625H38.8213V70.2363H41.0553V72.3625Z" fill="black"/>
</svg>
