<svg width="64" height="74" viewBox="0 0 64 74" fill="none" xmlns="http://www.w3.org/2000/svg">
<path d="M8.98427 74V69.6833H4.69844V65.3512H0.397187V8.71042H2.47844V63.1158H52.3976V2.22H2.5401V6.45958H0.304688V0H54.6484V4.36292H58.9805V8.695H63.2972V72.9979C63.2972 73.3217 63.2972 73.6608 63.2972 74H56.8222V71.8108H61.0618V10.8842H58.888V69.6833H11.2351V71.8571H50.3163V74H8.98427ZM6.87219 67.4479H56.7297V6.55208H54.5868V65.3512H6.87219V67.4479Z" fill="black"/>
<path d="M52.4902 74V71.8879H54.6486V74H52.4902Z" fill="black"/>
<path d="M6.8877 13.0108V10.8833H22.1194L22.3044 10.2821C22.6527 9.19769 23.3325 8.24993 24.248 7.57231C25.1634 6.8947 26.2684 6.5214 27.4073 6.50499C28.5726 6.46732 29.7184 6.81141 30.6701 7.48489C31.6219 8.15836 32.3276 9.12434 32.6798 10.2358C32.6948 10.3321 32.7287 10.4244 32.7794 10.5075C32.8302 10.5907 32.8969 10.6629 32.9757 10.7202C33.0545 10.7775 33.1438 10.8187 33.2385 10.8414C33.3332 10.8641 33.4315 10.8679 33.5277 10.8525H48.0964V13.0108H33.5123C33.0189 13.0108 32.7723 13.0879 32.6027 13.6429C32.2479 14.7224 31.5613 15.6624 30.6408 16.3288C29.7204 16.9951 28.613 17.3539 27.4767 17.3539C26.3403 17.3539 25.233 16.9951 24.3125 16.3288C23.392 15.6624 22.7054 14.7224 22.3506 13.6429C22.3356 13.5467 22.3017 13.4543 22.251 13.3712C22.2002 13.2881 22.1335 13.2158 22.0547 13.1585C21.9759 13.1012 21.8866 13.06 21.7919 13.0373C21.6972 13.0146 21.5989 13.0109 21.5027 13.0262H6.8877V13.0108ZM30.7219 12.0242C30.7519 11.3835 30.591 10.7483 30.2595 10.1993C29.928 9.65018 29.4409 9.21194 28.86 8.94011C28.2791 8.66829 27.6305 8.57514 26.9966 8.67248C26.3626 8.76982 25.7719 9.05326 25.2993 9.48685C24.8267 9.92044 24.4935 10.4846 24.342 11.1079C24.1905 11.7311 24.2276 12.3853 24.4485 12.9874C24.6693 13.5896 25.0641 14.1125 25.5826 14.49C26.1012 14.8674 26.7201 15.0824 27.361 15.1075C28.2147 15.141 29.047 14.8357 29.6766 14.2581C30.3061 13.6805 30.6818 12.8776 30.7219 12.0242Z" fill="#F3262D"/>
<path d="M6.8877 27.1331H48.0964V29.2914H6.8877V27.1331Z" fill="#F3262D"/>
<path d="M48.0962 38.0027V40.0839H6.87207V38.0027H48.0962Z" fill="#F3262D"/>
<path d="M48.0957 32.5601V34.6413H6.90234V32.5601H48.0957Z" fill="#F3262D"/>
<path d="M11.2197 23.8034V21.7222H43.7181V23.8034H11.2197Z" fill="#F3262D"/>
<path d="M47.557 45.5708V47.6521H25.9736V45.5708H47.557Z" fill="#F3262D"/>
<path d="M35.1463 59.1071L31.4463 55.4071L32.988 53.9425L35.023 56.1933L40.4342 50.7512L41.9759 52.2929L35.1463 59.1071Z" fill="#F3262D"/>
<path d="M43.8262 4.37842H45.892V6.45967H43.8262V4.37842Z" fill="black"/>
<path d="M48.0967 6.45967V4.37842H50.1933V6.45967H48.0967Z" fill="black"/>
</svg>
