<svg width="81" height="72" viewBox="0 0 81 72" fill="none" xmlns="http://www.w3.org/2000/svg">
<path d="M0.600586 35.975H7.86693V31.3253H19.5331V35.925H24.1829V14.8593C25.6661 14.8593 27.0661 14.8593 28.466 14.8593C28.7884 14.9086 29.1181 14.8622 29.4143 14.7259C29.7105 14.5897 29.9603 14.3695 30.1326 14.0927C32.4825 11.0261 34.8824 7.99295 37.2656 4.90975C37.4126 4.70139 37.6113 4.53494 37.8422 4.4268C38.073 4.31867 38.3281 4.27259 38.5822 4.29311H71.2808L71.0808 0.843262H80.5971V41.4915C80.6378 43.2347 80.3256 44.9682 79.6792 46.5877C79.0328 48.2072 78.0656 49.6792 76.8357 50.9153C75.6059 52.1515 74.1387 53.1261 72.5225 53.7806C70.9063 54.4352 69.1744 54.7562 67.431 54.7242C65.5977 54.7242 63.7478 54.7242 61.8312 54.7242V52.391H66.4643V38.3749H73.564L72.6474 24.3089L74.964 24.1756L75.9306 38.3249H78.2138V3.19316H73.614C73.5486 3.53 73.5887 3.87883 73.7289 4.19203C73.8691 4.50523 74.1025 4.76752 74.3973 4.94308C74.8681 5.23953 75.2598 5.64595 75.5387 6.12737C75.8176 6.60879 75.9753 7.15077 75.9983 7.70666C76.0213 8.26255 75.9088 8.81569 75.6705 9.31846C75.4323 9.82123 75.0754 10.2586 74.6307 10.5928C74.455 10.7083 74.3161 10.8718 74.2305 11.0637C74.1448 11.2557 74.116 11.4682 74.1473 11.6761C74.3807 14.776 74.564 17.8592 74.7806 20.959C74.7806 21.209 74.7806 21.4757 74.7806 21.809L72.4974 21.959L71.7808 11.4595H70.8975H44.3487C44.1064 11.4401 43.8635 11.4873 43.6461 11.596C43.4288 11.7047 43.2452 11.8707 43.1154 12.0761C42.3987 13.0594 41.6321 14.0093 40.8155 15.0593L41.9154 15.326C45.6018 16.1783 48.8854 18.2668 51.22 21.2442C53.5547 24.2217 54.7998 27.9086 54.7482 31.6919C54.7482 35.1251 54.7482 38.5749 54.7482 42.0081V43.0414H57.0648V50.0411H43.0154V52.4243C44.682 52.4243 46.2152 52.4243 47.7985 52.4243C49.4366 52.4128 51.0478 52.8413 52.4637 53.6651C53.8797 54.4889 55.0485 55.6777 55.8482 57.1074C56.6588 58.5098 57.092 60.0983 57.1053 61.7181C57.1186 63.3378 56.7117 64.9333 55.9242 66.3487C55.1367 67.7642 53.9956 68.9512 52.6123 69.794C51.229 70.6367 49.6508 71.1062 48.0318 71.1568C46.4486 71.1568 44.8653 71.1568 43.2154 71.1568V68.7903H47.8485C49.6524 68.7024 51.3533 67.9239 52.5989 66.6161C53.8445 65.3084 54.5393 63.5716 54.5393 61.7656C54.5393 59.9596 53.8445 58.2227 52.5989 56.915C51.3533 55.6072 49.6524 54.8288 47.8485 54.7409C45.4486 54.7409 43.0654 54.7409 40.6655 54.7409H12.6334C11.6821 54.6945 10.7313 54.8419 9.8387 55.174C8.94607 55.5061 8.13019 56.016 7.44055 56.6729C6.7509 57.3298 6.20185 58.1199 5.8267 58.9953C5.45155 59.8707 5.2581 60.8132 5.2581 61.7656C5.2581 62.718 5.45155 63.6605 5.8267 64.5359C6.20185 65.4113 6.7509 66.2014 7.44055 66.8582C8.13019 67.5151 8.94607 68.025 9.8387 68.3572C10.7313 68.6893 11.6821 68.8366 12.6334 68.7903H40.5988V71.1402H12.6001C10.1741 71.0906 7.86174 70.1031 6.14829 68.3851C4.43483 66.667 3.45354 64.352 3.41041 61.926C3.36729 59.4999 4.26566 57.1515 5.91697 55.3737C7.56828 53.5958 9.84411 52.5268 12.2667 52.391C13.9333 52.391 15.5999 52.391 17.2665 52.391V50.0244H16.4332C12.8667 50.0244 9.3002 50.0244 5.73369 50.0244C5.38301 50.08 5.0237 50.0287 4.70263 49.8771C4.38156 49.7255 4.11362 49.4806 3.93377 49.1745C2.85049 47.6579 1.70054 46.1913 0.600586 44.708V35.975ZM33.7491 17.2092V35.925H52.365C52.365 34.1085 52.4816 32.3252 52.365 30.5753C52.247 27.8266 51.3141 25.1751 49.6848 22.9582C48.0555 20.7412 45.8035 19.0591 43.2154 18.1258C40.1488 16.8592 36.949 17.2759 33.7491 17.2092ZM38.3989 47.6745C36.299 44.658 34.2991 41.8081 32.3325 38.9416C32.2159 38.7344 32.0427 38.5648 31.8331 38.4526C31.6235 38.3405 31.3863 38.2904 31.1492 38.3083H2.95048V39.8082C2.7821 41.1222 2.81582 42.4542 3.05048 43.758C3.67097 44.9591 4.43789 46.0787 5.33371 47.0912C5.45875 47.2963 5.63952 47.4616 5.85493 47.5678C6.07034 47.674 6.31151 47.7168 6.55032 47.6912H38.3989V47.6745ZM69.0309 6.693H68.2976H39.5655C39.3499 6.6787 39.1343 6.72212 38.941 6.81878C38.7476 6.91544 38.5835 7.06186 38.4656 7.24298L33.0992 14.176C32.9325 14.3927 32.7658 14.6093 32.5325 14.9426C34.1991 14.9426 35.7657 14.9426 37.2823 14.9426C37.5003 14.9608 37.7191 14.9174 37.9136 14.8172C38.1081 14.717 38.2705 14.5641 38.3823 14.376C39.4989 12.9094 40.6822 11.4928 41.7154 9.99286C41.8943 9.71636 42.142 9.4911 42.4341 9.33917C42.7263 9.18724 43.053 9.11386 43.382 9.12623C51.615 9.12623 59.848 9.12623 68.0643 9.12623H68.9142L69.0309 6.693ZM26.6328 17.2259V35.925H31.2826V17.2259H26.6328ZM68.9309 40.8415V52.341C71.67 52.0226 74.1727 50.6362 75.8953 48.483C77.6179 46.3297 78.4212 43.5836 78.1305 40.8415H68.9309ZM52.3983 38.4749H34.7991C35.7824 39.8749 36.7157 41.1915 37.599 42.5248C37.713 42.7244 37.882 42.8871 38.0859 42.9935C38.2897 43.0999 38.5199 43.1454 38.7489 43.1247H52.3483L52.3983 38.4749ZM19.6164 52.341H40.5988V50.0744H19.6164V52.341ZM39.6155 45.3913C40.0655 46.0413 40.4488 46.5246 40.7655 47.0579C40.8754 47.2709 41.0474 47.4454 41.2587 47.5585C41.4699 47.6716 41.7106 47.7179 41.9488 47.6912H54.6482V45.3913H39.6155ZM17.2665 35.925V33.6751H10.2502V35.925H17.2665ZM73.6307 7.82629C73.6308 7.67243 73.6 7.52012 73.5401 7.37838C73.4802 7.23665 73.3925 7.10836 73.2822 7.00113C73.1719 6.8939 73.0411 6.80991 72.8977 6.75412C72.7543 6.69833 72.6012 6.67188 72.4474 6.67634C72.2986 6.67851 72.1516 6.70998 72.015 6.76895C71.8783 6.82792 71.7546 6.91323 71.6509 7.02002C71.5472 7.1268 71.4656 7.25297 71.4107 7.39131C71.3557 7.52965 71.3286 7.67746 71.3308 7.82629C71.3308 8.13127 71.452 8.42377 71.6676 8.63942C71.8833 8.85508 72.1758 8.97624 72.4808 8.97624C72.7857 8.97624 73.0782 8.85508 73.2939 8.63942C73.5095 8.42377 73.6307 8.13127 73.6307 7.82629Z" fill="black"/>
<path d="M30.1318 57.1409H47.4644C48.0945 57.0978 48.7267 57.184 49.3223 57.3941C49.9179 57.6043 50.4642 57.934 50.9277 58.363C51.3912 58.7919 51.7621 59.3112 52.0176 59.8887C52.2731 60.4663 52.4079 61.09 52.4136 61.7215C52.4193 62.3531 52.2958 62.9791 52.0507 63.5611C51.8056 64.1432 51.4441 64.669 50.9884 65.1063C50.5327 65.5436 49.9924 65.8831 49.4008 66.1039C48.8091 66.3247 48.1785 66.4223 47.5477 66.3905H12.7159C12.0306 66.4237 11.3464 66.3038 10.7133 66.0393C10.0801 65.7749 9.51385 65.3726 9.05572 64.8618C8.59758 64.351 8.25907 63.7445 8.06482 63.0864C7.87058 62.4283 7.82547 61.7352 7.93279 61.0574C8.08054 60.0753 8.54446 59.1681 9.25422 58.4734C9.96398 57.7787 10.8809 57.3343 11.866 57.2076C12.2544 57.1827 12.6441 57.1827 13.0326 57.2076L30.1318 57.1409ZM10.2327 61.7907C10.2349 62.0906 10.2961 62.387 10.4129 62.6632C10.5296 62.9394 10.6996 63.1899 10.9132 63.4004C11.1268 63.6108 11.3797 63.7772 11.6576 63.8899C11.9354 64.0026 12.2327 64.0595 12.5326 64.0573C13.1355 64.0316 13.7053 63.775 14.1242 63.3407C14.543 62.9063 14.7788 62.3275 14.7825 61.7241C14.7651 61.1301 14.517 60.5664 14.0906 60.1525C13.6643 59.7386 13.0934 59.5072 12.4993 59.5075C12.1989 59.5029 11.9008 59.559 11.6226 59.6724C11.3445 59.7857 11.0921 59.954 10.8805 60.1671C10.6688 60.3803 10.5024 60.634 10.3911 60.9129C10.2798 61.1919 10.2259 61.4905 10.2327 61.7907ZM21.8988 61.7907C21.89 62.0906 21.9403 62.3893 22.0469 62.6697C22.1535 62.9501 22.3143 63.2068 22.5202 63.425C22.726 63.6433 22.9729 63.8188 23.2466 63.9416C23.5203 64.0644 23.8155 64.132 24.1154 64.1406C24.7216 64.1367 25.3028 63.8987 25.7376 63.4763C26.1724 63.0539 26.4272 62.4799 26.4486 61.8741C26.4449 61.2839 26.2145 60.7178 25.805 60.2928C25.3955 59.8678 24.8383 59.6165 24.2487 59.5908C23.6687 59.5812 23.1074 59.796 22.6819 60.1904C22.2565 60.5848 21.9998 61.1283 21.9655 61.7074L21.8988 61.7907ZM45.3645 61.7907C45.3578 62.0906 45.4103 62.3888 45.519 62.6684C45.6276 62.9479 45.7903 63.2033 45.9977 63.42C46.2051 63.6367 46.4531 63.8104 46.7277 63.9312C47.0022 64.052 47.2979 64.1175 47.5977 64.124C48.2006 64.1198 48.7782 63.8807 49.2076 63.4574C49.6371 63.0342 49.8846 62.4602 49.8976 61.8574C49.8976 61.2563 49.6588 60.6798 49.2337 60.2547C48.8087 59.8296 48.2322 59.5908 47.631 59.5908C47.0299 59.5908 46.4534 59.8296 46.0283 60.2547C45.6033 60.6798 45.3645 61.2563 45.3645 61.8574V61.7907ZM33.6983 61.7907C33.7005 62.0906 33.7617 62.387 33.8785 62.6632C33.9952 62.9394 34.1653 63.1899 34.3788 63.4004C34.5924 63.6108 34.8453 63.7772 35.1232 63.8899C35.401 64.0026 35.6984 64.0595 35.9982 64.0573C36.604 64.0315 37.1763 63.7726 37.5956 63.3346C38.0149 62.8967 38.2487 62.3137 38.2481 61.7074C38.2265 61.1164 37.9765 60.5568 37.5506 60.1465C37.1247 59.7362 36.5563 59.5071 35.9649 59.5075C35.6646 59.5029 35.3664 59.559 35.0883 59.6724C34.8101 59.7857 34.5577 59.954 34.3461 60.1671C34.1345 60.3803 33.9681 60.634 33.8567 60.9129C33.7454 61.1919 33.6916 61.4905 33.6983 61.7907ZM16.6324 59.5242C16.9528 60.231 17.1185 60.998 17.1185 61.7741C17.1185 62.5501 16.9528 63.3172 16.6324 64.024H20.1323C19.7905 63.3232 19.6129 62.5537 19.6129 61.7741C19.6129 60.9944 19.7905 60.225 20.1323 59.5242H16.6324ZM28.2986 64.024H31.8817C31.5355 63.3304 31.3553 62.5659 31.3553 61.7907C31.3553 61.0156 31.5355 60.251 31.8817 59.5575H28.2819C28.6451 60.2453 28.8364 61.0109 28.8393 61.7887C28.8422 62.5665 28.6566 63.3335 28.2986 64.024ZM43.6146 64.024C43.2683 63.3304 43.0881 62.5659 43.0881 61.7907C43.0881 61.0156 43.2683 60.251 43.6146 59.5575H40.0314C40.3893 60.2475 40.5762 61.0134 40.5762 61.7907C40.5762 62.568 40.3893 63.334 40.0314 64.024H43.6146Z" fill="#F3262D"/>
<path d="M10.1502 42.9748H7.91699V40.7083H10.1502V42.9748Z" fill="black"/>
<path d="M14.8172 42.9582H12.6006V40.7083H14.8172V42.9582Z" fill="black"/>
</svg>
